<svg width="24" height="24" viewBox="0 0 24 24" fill="none" xmlns="http://www.w3.org/2000/svg">
<mask id="mask0_465_490" style="mask-type:alpha" maskUnits="userSpaceOnUse" x="0" y="0" width="24" height="24">
<rect width="24" height="24" fill="#D9D9D9"/>
</mask>
<g mask="url(#mask0_465_490)">
<path d="M7.5 15H9V11H7.5V12.25H6V13.75H7.5V15ZM10 13.75H18V12.25H10V13.75ZM15 11H16.5V9.75H18V8.25H16.5V7H15V11ZM6 9.75H14V8.25H6V9.75ZM8 21V19H4C3.45 19 2.97917 18.8042 2.5875 18.4125C2.19583 18.0208 2 17.55 2 17V5C2 4.45 2.19583 3.97917 2.5875 3.5875C2.97917 3.19583 3.45 3 4 3H20C20.55 3 21.0208 3.19583 21.4125 3.5875C21.8042 3.97917 22 4.45 22 5V17C22 17.55 21.8042 18.0208 21.4125 18.4125C21.0208 18.8042 20.55 19 20 19H16V21H8ZM4 17H20V5H4V17Z" fill="#C2CFE0"/>
</g>
</svg>
