<svg width="24" height="24" viewBox="0 0 24 24" fill="none" xmlns="http://www.w3.org/2000/svg">
<g clip-path="url(#clip0_12_1047)">
<path d="M4.24269 17.5594L7.55269 19.5914C7.79336 19.7374 8.10603 19.6661 8.25269 19.4267L8.25603 19.4207C10.3534 15.9241 10.772 16.4327 17.0354 19.3987C17.2887 19.5207 17.5914 19.4114 17.7134 19.1587L17.72 19.1461L19.2954 15.5907C19.408 15.3381 19.292 15.0427 19.042 14.9274C18.348 14.6034 16.9734 13.9554 15.732 13.3594C7.98403 9.60072 5.39269 14.7834 4.07069 16.8681C3.93003 17.1047 4.00536 17.4127 4.24269 17.5594Z" fill="#2684FF"/>
<path d="M19.9296 7.1406C20.0702 6.90394 19.9949 6.59527 19.7576 6.44861L16.4509 4.41927C16.2162 4.26394 15.9009 4.32261 15.7442 4.55661L15.7256 4.58794C13.6222 8.09661 13.1902 7.56661 6.95556 4.61594C6.70289 4.49461 6.40023 4.60327 6.27823 4.85594L6.27223 4.86861L4.69356 8.42394C4.58089 8.67661 4.69689 8.97194 4.94689 9.08727C5.64089 9.41194 7.01956 10.0599 8.26023 10.6586C16.0116 14.3979 18.5989 9.24394 19.9309 7.1406H19.9296Z" fill="#2684FF"/>
<path d="M10.772 12.0286C6.752 12.0279 5.058 15.3112 4.07067 16.8679C3.93 17.1046 4.00533 17.4126 4.24333 17.5593L7.55333 19.5912C7.63667 19.6419 7.73 19.6666 7.82133 19.6666C7.99133 19.6666 8.15733 19.5819 8.25267 19.4259L8.256 19.4199C9.26533 17.7372 9.886 16.9819 10.956 16.9819C11.2607 16.9819 11.602 17.0433 11.9993 17.1619V12.1239C11.568 12.0593 11.1593 12.0286 10.772 12.0286ZM6.738 4.56592C6.548 4.56592 6.366 4.67325 6.27733 4.85592L6.272 4.86858L4.69333 8.42392C4.58067 8.67658 4.69667 8.97192 4.94667 9.08725C5.64067 9.41192 7.01933 10.0599 8.26 10.6586C9.66933 11.3386 10.9087 11.7246 12 11.8879V6.85458C10.8933 6.52792 9.354 5.75058 6.956 4.61592C6.88533 4.58192 6.81133 4.56592 6.738 4.56592Z" fill="#2173DE"/>
</g>
<defs>
<clipPath id="clip0_12_1047">
<rect width="16" height="16" fill="white" transform="translate(4 4)"/>
</clipPath>
</defs>
</svg>