<svg width="32" height="32" viewBox="0 0 32 32" fill="none" xmlns="http://www.w3.org/2000/svg">
<path d="M12.8556 17.356C14.8194 17.3538 16.7022 16.5726 18.0908 15.1839C19.4794 13.7953 20.2605 11.9125 20.2627 9.94865C19.8556 0.122445 5.85407 0.125311 5.44843 9.94871C5.45065 11.9125 6.23175 13.7953 7.62038 15.184C9.009 16.5726 10.8917 17.3538 12.8556 17.356ZM12.8556 3.54212C14.5541 3.54402 16.1826 4.21959 17.3837 5.42063C18.5848 6.62167 19.2604 8.25009 19.2624 9.94865C18.9105 18.4485 6.79931 18.446 6.44878 9.94859C6.45076 8.25004 7.12641 6.62163 8.32749 5.42061C9.52858 4.21958 11.157 3.54401 12.8556 3.54212Z" fill="black"/>
<path d="M12.8556 18.0975C9.97622 18.1009 7.2157 19.2462 5.17968 21.2822C3.14366 23.3183 1.99839 26.0789 1.99512 28.9583C1.9951 29.0239 2.00803 29.089 2.03316 29.1497C2.05829 29.2104 2.09513 29.2655 2.14158 29.312C2.18803 29.3584 2.24317 29.3953 2.30386 29.4204C2.36456 29.4455 2.4296 29.4584 2.49529 29.4584H23.2159C23.2816 29.4585 23.3467 29.4456 23.4074 29.4204C23.4681 29.3953 23.5232 29.3585 23.5697 29.312C23.6161 29.2656 23.653 29.2104 23.6781 29.1497C23.7032 29.089 23.7161 29.0239 23.7161 28.9583C23.7129 26.0788 22.5676 23.3183 20.5316 21.2822C18.4956 19.2461 15.735 18.1008 12.8556 18.0975ZM12.8556 19.0979C15.3817 19.1021 17.8098 20.0752 19.6396 21.8167C21.4694 23.5582 22.5614 25.9353 22.6904 28.4581H3.02082C3.14983 25.9353 4.24178 23.5582 6.07158 21.8167C7.90137 20.0752 10.3296 19.1021 12.8556 19.0979ZM29.5048 16.3557H25.4091V12.261C25.4065 12.1301 25.3526 12.0054 25.2591 11.9137C25.1656 11.8221 25.0398 11.7707 24.9089 11.7708C24.7779 11.7708 24.6522 11.8221 24.5587 11.9138C24.4652 12.0054 24.4113 12.1301 24.4087 12.261V16.3557H20.314C20.1814 16.3557 20.0542 16.4084 19.9604 16.5022C19.8665 16.596 19.8139 16.7232 19.8139 16.8559C19.8139 16.9885 19.8665 17.1157 19.9604 17.2096C20.0542 17.3034 20.1814 17.356 20.314 17.356H24.4087V21.4503C24.4087 21.5829 24.4614 21.7101 24.5552 21.8039C24.649 21.8977 24.7762 21.9504 24.9089 21.9504C25.0416 21.9504 25.1688 21.8977 25.2626 21.8039C25.3564 21.7101 25.4091 21.5829 25.4091 21.4503V17.356H29.5047C29.6357 17.3534 29.7603 17.2996 29.852 17.2061C29.9437 17.1126 29.995 16.9868 29.995 16.8559C29.995 16.7249 29.9437 16.5992 29.852 16.5057C29.7604 16.4122 29.6357 16.3583 29.5048 16.3557Z" fill="black"/>
</svg>