<svg width="24" height="24" viewBox="0 0 24 24" fill="none" xmlns="http://www.w3.org/2000/svg">
<mask id="mask0_465_511" style="mask-type:alpha" maskUnits="userSpaceOnUse" x="0" y="0" width="24" height="24">
<rect width="24" height="24" fill="#D9D9D9"/>
</mask>
<g mask="url(#mask0_465_511)">
<path d="M15 18V15H12.2C11.6667 15.9 10.9417 16.625 10.025 17.175C9.10833 17.725 8.1 18 7 18C5.33333 18 3.91667 17.4167 2.75 16.25C1.58333 15.0833 1 13.6667 1 12C1 10.3333 1.58333 8.91667 2.75 7.75C3.91667 6.58333 5.33333 6 7 6C8.1 6 9.10833 6.275 10.025 6.825C10.9417 7.375 11.6667 8.1 12.2 9H19V11H10.85C10.7167 10.35 10.3167 9.6875 9.65 9.0125C8.98333 8.3375 8.1 8 7 8C5.9 8 4.95833 8.39167 4.175 9.175C3.39167 9.95833 3 10.9 3 12C3 13.1 3.39167 14.0417 4.175 14.825C4.95833 15.6083 5.9 16 7 16C8.1 16 8.98333 15.6625 9.65 14.9875C10.3167 14.3125 10.7167 13.65 10.85 13H17V16H19V18H15ZM7 14C7.55 14 8.02083 13.8042 8.4125 13.4125C8.80417 13.0208 9 12.55 9 12C9 11.45 8.80417 10.9792 8.4125 10.5875C8.02083 10.1958 7.55 10 7 10C6.45 10 5.97917 10.1958 5.5875 10.5875C5.19583 10.9792 5 11.45 5 12C5 12.55 5.19583 13.0208 5.5875 13.4125C5.97917 13.8042 6.45 14 7 14ZM22 18C21.7167 18 21.4792 17.9042 21.2875 17.7125C21.0958 17.5208 21 17.2833 21 17C21 16.7167 21.0958 16.4792 21.2875 16.2875C21.4792 16.0958 21.7167 16 22 16C22.2833 16 22.5208 16.0958 22.7125 16.2875C22.9042 16.4792 23 16.7167 23 17C23 17.2833 22.9042 17.5208 22.7125 17.7125C22.5208 17.9042 22.2833 18 22 18ZM21 14V9H23V14H21Z" fill="#C2CFE0"/>
</g>
</svg>
