<svg width="24" height="24" viewBox="0 0 24 24" fill="none" xmlns="http://www.w3.org/2000/svg">
<g clip-path="url(#clip0_16_451)">
<path d="M9.33317 20.0001C10.8052 20.0001 11.9998 18.8054 11.9998 17.3334V14.6667H9.33317C7.86117 14.6667 6.6665 15.8614 6.6665 17.3334C6.6665 18.8054 7.86117 20.0001 9.33317 20.0001Z" fill="#0ACF83"/>
<path d="M6.6665 11.9999C6.6665 10.5279 7.86117 9.33325 9.33317 9.33325H11.9998V14.6666H9.33317C7.86117 14.6666 6.6665 13.4719 6.6665 11.9999Z" fill="#A259FF"/>
<path d="M6.6665 6.66667C6.6665 5.19467 7.86117 4 9.33317 4H11.9998V9.33333H9.33317C7.86117 9.33333 6.6665 8.13867 6.6665 6.66667Z" fill="#F24E1E"/>
<path d="M12 4H14.6667C16.1387 4 17.3333 5.19467 17.3333 6.66667C17.3333 8.13867 16.1387 9.33333 14.6667 9.33333H12V4Z" fill="#FF7262"/>
<path d="M17.3333 11.9999C17.3333 13.4719 16.1387 14.6666 14.6667 14.6666C13.1947 14.6666 12 13.4719 12 11.9999C12 10.5279 13.1947 9.33325 14.6667 9.33325C16.1387 9.33325 17.3333 10.5279 17.3333 11.9999Z" fill="#1ABCFE"/>
</g>
<defs>
<clipPath id="clip0_16_451">
<rect width="16" height="16" fill="white" transform="translate(4 4)"/>
</clipPath>
</defs>
</svg>
