<svg width="21" height="21" viewBox="0 0 21 21" fill="none" xmlns="http://www.w3.org/2000/svg">
<g clip-path="url(#clip0_11983_112570)">
<path d="M20.2619 10.6882C20.2619 9.86883 20.1954 9.27089 20.0515 8.65082H10.6948V12.3491H16.187C16.0763 13.2682 15.4783 14.6523 14.1496 15.5824L14.1309 15.7062L17.0893 17.9981L17.2943 18.0185C19.1767 16.2801 20.2619 13.7222 20.2619 10.6882Z" fill="#4285F4"/>
<path d="M10.6947 20.4315C13.3854 20.4315 15.6443 19.5456 17.2942 18.0175L14.1495 15.5814C13.3079 16.1683 12.1785 16.578 10.6947 16.578C8.05936 16.578 5.82263 14.8396 5.0253 12.4367L4.90842 12.4466L1.83222 14.8273L1.79199 14.9392C3.43078 18.1946 6.79699 20.4315 10.6947 20.4315Z" fill="#34A853"/>
<path d="M5.02526 12.4376C4.81488 11.8175 4.69313 11.1531 4.69313 10.4666C4.69313 9.78006 4.81488 9.11571 5.01419 8.49563L5.00862 8.36357L1.89389 5.94464L1.79198 5.99311C1.11656 7.34403 0.729004 8.86105 0.729004 10.4666C0.729004 12.0722 1.11656 13.5891 1.79198 14.9401L5.02526 12.4376Z" fill="#FBBC05"/>
<path d="M10.6947 4.35339C12.566 4.35339 13.8283 5.16171 14.548 5.83721L17.3605 3.0911C15.6332 1.48553 13.3854 0.500031 10.6947 0.500031C6.79695 0.500031 3.43077 2.73675 1.79199 5.99217L5.01421 8.49469C5.8226 6.09186 8.05932 4.35339 10.6947 4.35339Z" fill="#EB4335"/>
</g>
<defs>
<clipPath id="clip0_11983_112570">
<rect width="20" height="20" fill="white" transform="translate(0.5 0.5)"/>
</clipPath>
</defs>
</svg>
