<svg width="125" height="32" viewBox="0 0 125 32" fill="none" xmlns="http://www.w3.org/2000/svg">
<mask id="mask0_37_6039" style="mask-type:alpha" maskUnits="userSpaceOnUse" x="4" y="4" width="24" height="24">
<rect x="4" y="4" width="24" height="24" fill="#D9D9D9"/>
</mask>
<g mask="url(#mask0_37_6039)">
<path d="M15.95 22C16.3 22 16.5958 21.8792 16.8375 21.6375C17.0792 21.3958 17.2 21.1 17.2 20.75C17.2 20.4 17.0792 20.1042 16.8375 19.8625C16.5958 19.6208 16.3 19.5 15.95 19.5C15.6 19.5 15.3042 19.6208 15.0625 19.8625C14.8208 20.1042 14.7 20.4 14.7 20.75C14.7 21.1 14.8208 21.3958 15.0625 21.6375C15.3042 21.8792 15.6 22 15.95 22ZM15.05 18.15H16.9C16.9 17.6 16.9625 17.1667 17.0875 16.85C17.2125 16.5333 17.5667 16.1 18.15 15.55C18.5833 15.1167 18.925 14.7042 19.175 14.3125C19.425 13.9208 19.55 13.45 19.55 12.9C19.55 11.9667 19.2083 11.25 18.525 10.75C17.8417 10.25 17.0333 10 16.1 10C15.15 10 14.3792 10.25 13.7875 10.75C13.1958 11.25 12.7833 11.85 12.55 12.55L14.2 13.2C14.2833 12.9 14.4708 12.575 14.7625 12.225C15.0542 11.875 15.5 11.7 16.1 11.7C16.6333 11.7 17.0333 11.8458 17.3 12.1375C17.5667 12.4292 17.7 12.75 17.7 13.1C17.7 13.4333 17.6 13.7458 17.4 14.0375C17.2 14.3292 16.95 14.6 16.65 14.85C15.9167 15.5 15.4667 15.9917 15.3 16.325C15.1333 16.6583 15.05 17.2667 15.05 18.15ZM16 26C14.6167 26 13.3167 25.7375 12.1 25.2125C10.8833 24.6875 9.825 23.975 8.925 23.075C8.025 22.175 7.3125 21.1167 6.7875 19.9C6.2625 18.6833 6 17.3833 6 16C6 14.6167 6.2625 13.3167 6.7875 12.1C7.3125 10.8833 8.025 9.825 8.925 8.925C9.825 8.025 10.8833 7.3125 12.1 6.7875C13.3167 6.2625 14.6167 6 16 6C17.3833 6 18.6833 6.2625 19.9 6.7875C21.1167 7.3125 22.175 8.025 23.075 8.925C23.975 9.825 24.6875 10.8833 25.2125 12.1C25.7375 13.3167 26 14.6167 26 16C26 17.3833 25.7375 18.6833 25.2125 19.9C24.6875 21.1167 23.975 22.175 23.075 23.075C22.175 23.975 21.1167 24.6875 19.9 25.2125C18.6833 25.7375 17.3833 26 16 26ZM16 24C18.2333 24 20.125 23.225 21.675 21.675C23.225 20.125 24 18.2333 24 16C24 13.7667 23.225 11.875 21.675 10.325C20.125 8.775 18.2333 8 16 8C13.7667 8 11.875 8.775 10.325 10.325C8.775 11.875 8 13.7667 8 16C8 18.2333 8.775 20.125 10.325 21.675C11.875 23.225 13.7667 24 16 24Z" fill="#334D6E" fill-opacity="0.8"/>
</g>
<path d="M44.82 11.27V21H43.224V16.744H38.646V21H37.05V11.27H38.646V15.442H43.224V11.27H44.82ZM54.1311 16.954C54.1311 17.2433 54.1124 17.5047 54.0751 17.738H48.1811C48.2278 18.354 48.4564 18.8487 48.8671 19.222C49.2778 19.5953 49.7818 19.782 50.3791 19.782C51.2378 19.782 51.8444 19.4227 52.1991 18.704H53.9211C53.6878 19.4133 53.2631 19.9967 52.6471 20.454C52.0404 20.902 51.2844 21.126 50.3791 21.126C49.6418 21.126 48.9791 20.9627 48.3911 20.636C47.8124 20.3 47.3551 19.8333 47.0191 19.236C46.6924 18.6293 46.5291 17.9293 46.5291 17.136C46.5291 16.3427 46.6878 15.6473 47.0051 15.05C47.3318 14.4433 47.7844 13.9767 48.3631 13.65C48.9511 13.3233 49.6231 13.16 50.3791 13.16C51.1071 13.16 51.7558 13.3187 52.3251 13.636C52.8944 13.9533 53.3378 14.4013 53.6551 14.98C53.9724 15.5493 54.1311 16.2073 54.1311 16.954ZM52.4651 16.45C52.4558 15.862 52.2458 15.3907 51.8351 15.036C51.4244 14.6813 50.9158 14.504 50.3091 14.504C49.7584 14.504 49.2871 14.6813 48.8951 15.036C48.5031 15.3813 48.2698 15.8527 48.1951 16.45H52.4651ZM57.4377 10.64V21H55.8417V10.64H57.4377ZM61.2691 14.42C61.5398 14.0653 61.9085 13.7667 62.3751 13.524C62.8418 13.2813 63.3691 13.16 63.9571 13.16C64.6291 13.16 65.2405 13.328 65.7911 13.664C66.3511 13.9907 66.7898 14.4527 67.1071 15.05C67.4245 15.6473 67.5831 16.3333 67.5831 17.108C67.5831 17.8827 67.4245 18.578 67.1071 19.194C66.7898 19.8007 66.3511 20.2767 65.7911 20.622C65.2405 20.958 64.6291 21.126 63.9571 21.126C63.3691 21.126 62.8465 21.0093 62.3891 20.776C61.9318 20.5333 61.5585 20.2347 61.2691 19.88V24.668H59.6731V13.286H61.2691V14.42ZM65.9591 17.108C65.9591 16.576 65.8471 16.1187 65.6231 15.736C65.4085 15.344 65.1191 15.05 64.7551 14.854C64.4005 14.6487 64.0178 14.546 63.6071 14.546C63.2058 14.546 62.8231 14.6487 62.4591 14.854C62.1045 15.0593 61.8151 15.358 61.5911 15.75C61.3765 16.142 61.2691 16.604 61.2691 17.136C61.2691 17.668 61.3765 18.1347 61.5911 18.536C61.8151 18.928 62.1045 19.2267 62.4591 19.432C62.8231 19.6373 63.2058 19.74 63.6071 19.74C64.0178 19.74 64.4005 19.6373 64.7551 19.432C65.1191 19.2173 65.4085 18.9093 65.6231 18.508C65.8471 18.1067 65.9591 17.64 65.9591 17.108ZM72.5461 16.114C72.5461 15.162 72.7655 14.308 73.2041 13.552C73.6521 12.796 74.2541 12.208 75.0101 11.788C75.7755 11.3587 76.6108 11.144 77.5161 11.144C78.5521 11.144 79.4715 11.4007 80.2741 11.914C81.0861 12.418 81.6741 13.1367 82.0381 14.07H80.1201C79.8681 13.5567 79.5181 13.174 79.0701 12.922C78.6221 12.67 78.1041 12.544 77.5161 12.544C76.8721 12.544 76.2981 12.6887 75.7941 12.978C75.2901 13.2673 74.8935 13.6827 74.6041 14.224C74.3241 14.7653 74.1841 15.3953 74.1841 16.114C74.1841 16.8327 74.3241 17.4627 74.6041 18.004C74.8935 18.5453 75.2901 18.9653 75.7941 19.264C76.2981 19.5533 76.8721 19.698 77.5161 19.698C78.1041 19.698 78.6221 19.572 79.0701 19.32C79.5181 19.068 79.8681 18.6853 80.1201 18.172H82.0381C81.6741 19.1053 81.0861 19.824 80.2741 20.328C79.4715 20.832 78.5521 21.084 77.5161 21.084C76.6015 21.084 75.7661 20.874 75.0101 20.454C74.2541 20.0247 73.6521 19.432 73.2041 18.676C72.7655 17.92 72.5461 17.066 72.5461 16.114ZM91.1163 16.954C91.1163 17.2433 91.0976 17.5047 91.0603 17.738H85.1663C85.2129 18.354 85.4416 18.8487 85.8523 19.222C86.2629 19.5953 86.7669 19.782 87.3643 19.782C88.2229 19.782 88.8296 19.4227 89.1843 18.704H90.9063C90.6729 19.4133 90.2483 19.9967 89.6323 20.454C89.0256 20.902 88.2696 21.126 87.3643 21.126C86.6269 21.126 85.9643 20.9627 85.3763 20.636C84.7976 20.3 84.3403 19.8333 84.0043 19.236C83.6776 18.6293 83.5143 17.9293 83.5143 17.136C83.5143 16.3427 83.6729 15.6473 83.9903 15.05C84.3169 14.4433 84.7696 13.9767 85.3483 13.65C85.9363 13.3233 86.6083 13.16 87.3643 13.16C88.0923 13.16 88.7409 13.3187 89.3103 13.636C89.8796 13.9533 90.3229 14.4013 90.6403 14.98C90.9576 15.5493 91.1163 16.2073 91.1163 16.954ZM89.4503 16.45C89.4409 15.862 89.2309 15.3907 88.8203 15.036C88.4096 14.6813 87.9009 14.504 87.2943 14.504C86.7436 14.504 86.2723 14.6813 85.8803 15.036C85.4883 15.3813 85.2549 15.8527 85.1803 16.45H89.4503ZM96.7189 13.16C97.3255 13.16 97.8669 13.286 98.3429 13.538C98.8282 13.79 99.2062 14.1633 99.4769 14.658C99.7475 15.1527 99.8829 15.75 99.8829 16.45V21H98.3009V16.688C98.3009 15.9973 98.1282 15.47 97.7829 15.106C97.4375 14.7327 96.9662 14.546 96.3689 14.546C95.7715 14.546 95.2955 14.7327 94.9409 15.106C94.5955 15.47 94.4229 15.9973 94.4229 16.688V21H92.8269V13.286H94.4229V14.168C94.6842 13.8507 95.0155 13.6033 95.4169 13.426C95.8275 13.2487 96.2615 13.16 96.7189 13.16ZM103.921 14.588V18.858C103.921 19.1473 103.986 19.3573 104.117 19.488C104.257 19.6093 104.49 19.67 104.817 19.67H105.797V21H104.537C103.818 21 103.267 20.832 102.885 20.496C102.502 20.16 102.311 19.614 102.311 18.858V14.588H101.401V13.286H102.311V11.368H103.921V13.286H105.797V14.588H103.921ZM109.004 14.406C109.237 14.014 109.545 13.7107 109.928 13.496C110.32 13.272 110.782 13.16 111.314 13.16V14.812H110.908C110.282 14.812 109.806 14.9707 109.48 15.288C109.162 15.6053 109.004 16.156 109.004 16.94V21H107.408V13.286H109.004V14.406ZM119.991 16.954C119.991 17.2433 119.972 17.5047 119.935 17.738H114.041C114.087 18.354 114.316 18.8487 114.727 19.222C115.137 19.5953 115.641 19.782 116.239 19.782C117.097 19.782 117.704 19.4227 118.059 18.704H119.781C119.547 19.4133 119.123 19.9967 118.507 20.454C117.9 20.902 117.144 21.126 116.239 21.126C115.501 21.126 114.839 20.9627 114.251 20.636C113.672 20.3 113.215 19.8333 112.879 19.236C112.552 18.6293 112.389 17.9293 112.389 17.136C112.389 16.3427 112.547 15.6473 112.865 15.05C113.191 14.4433 113.644 13.9767 114.223 13.65C114.811 13.3233 115.483 13.16 116.239 13.16C116.967 13.16 117.615 13.3187 118.185 13.636C118.754 13.9533 119.197 14.4013 119.515 14.98C119.832 15.5493 119.991 16.2073 119.991 16.954ZM118.325 16.45C118.315 15.862 118.105 15.3907 117.695 15.036C117.284 14.6813 116.775 14.504 116.169 14.504C115.618 14.504 115.147 14.6813 114.755 15.036C114.363 15.3813 114.129 15.8527 114.055 16.45H118.325Z" fill="#334D6E"/>
</svg>
