<svg width="20" height="21" viewBox="0 0 20 21" fill="none" xmlns="http://www.w3.org/2000/svg">
<mask id="mask0_79_2209" style="mask-type:alpha" maskUnits="userSpaceOnUse" x="0" y="0" width="20" height="21">
<rect y="0.5" width="20" height="20" fill="#D9D9D9"/>
</mask>
<g mask="url(#mask0_79_2209)">
<path d="M9.25 14.5H10.75V9.5H9.25V14.5ZM9.9956 8C10.2069 8 10.3854 7.92855 10.5312 7.78565C10.6771 7.64273 10.75 7.46565 10.75 7.2544C10.75 7.04313 10.6785 6.86458 10.5356 6.71875C10.3927 6.57292 10.2156 6.5 10.0044 6.5C9.79313 6.5 9.61458 6.57145 9.46875 6.71435C9.32292 6.85727 9.25 7.03435 9.25 7.2456C9.25 7.45687 9.32145 7.63542 9.46435 7.78125C9.60727 7.92708 9.78435 8 9.9956 8ZM10.0058 18.5C8.9047 18.5 7.86806 18.2917 6.89583 17.875C5.92361 17.4583 5.07292 16.8854 4.34375 16.1562C3.61458 15.4271 3.04167 14.5767 2.625 13.605C2.20833 12.6334 2 11.5952 2 10.4905C2 9.38571 2.20833 8.35069 2.625 7.38542C3.04167 6.42014 3.61458 5.57292 4.34375 4.84375C5.07292 4.11458 5.92332 3.54167 6.89496 3.125C7.86661 2.70833 8.90481 2.5 10.0095 2.5C11.1143 2.5 12.1493 2.70833 13.1146 3.125C14.0799 3.54167 14.9271 4.11458 15.6562 4.84375C16.3854 5.57292 16.9583 6.42169 17.375 7.39008C17.7917 8.35849 18 9.39321 18 10.4943C18 11.5953 17.7917 12.6319 17.375 13.6042C16.9583 14.5764 16.3854 15.4271 15.6562 16.1562C14.9271 16.8854 14.0783 17.4583 13.1099 17.875C12.1415 18.2917 11.1068 18.5 10.0058 18.5Z" fill="#334D6E"/>
</g>
</svg>