<svg width="24" height="24" viewBox="0 0 24 24" fill="none" xmlns="http://www.w3.org/2000/svg">
<path d="M8.18111 2.12971C8.93065 1.6992 9.74628 1.39571 10.5949 1.23153C10.6418 1.22246 10.6865 1.20425 10.7263 1.17792C10.7662 1.1516 10.8005 1.11768 10.8272 1.0781C10.854 1.03852 10.8726 0.994064 10.8822 0.947263C10.8918 0.900463 10.892 0.852238 10.8829 0.805344C10.8741 0.758397 10.856 0.713665 10.8298 0.673723C10.8036 0.633781 10.7698 0.599419 10.7302 0.572616C10.6907 0.545813 10.6462 0.527098 10.5994 0.51755C10.5526 0.508001 10.5044 0.507808 10.4575 0.51698C9.53015 0.696627 8.63887 1.02824 7.81965 1.49843C7.73995 1.54836 7.68266 1.62719 7.6598 1.71841C7.63693 1.80964 7.65026 1.90617 7.69699 1.98778C7.74372 2.0694 7.82023 2.12976 7.91047 2.15622C8.00072 2.18267 8.09771 2.17317 8.18111 2.12971ZM11.9757 1.0908C12.0429 1.10062 13.9473 0.974434 15.9633 2.12971C16.0047 2.15344 16.0505 2.16878 16.0978 2.17484C16.1452 2.18091 16.1933 2.17758 16.2394 2.16505C16.2855 2.15253 16.3287 2.13104 16.3665 2.10183C16.4043 2.07262 16.4359 2.03625 16.4597 1.9948C16.4834 1.95335 16.4987 1.90763 16.5048 1.86025C16.5109 1.81288 16.5075 1.76477 16.495 1.71868C16.4825 1.67258 16.461 1.62941 16.4318 1.59162C16.4026 1.55383 16.3662 1.52217 16.3247 1.49843C14.1691 0.264616 12.3942 0.419162 11.9666 0.363525C11.9188 0.363812 11.8716 0.373501 11.8276 0.392041C11.7836 0.41058 11.7436 0.437605 11.7101 0.471575C11.6423 0.540179 11.6045 0.632901 11.6051 0.729344C11.6057 0.825786 11.6446 0.918048 11.7132 0.985834C11.7818 1.05362 11.8745 1.09138 11.9709 1.0908H11.9757ZM20.0389 17.3475C19.952 17.3058 19.8522 17.3003 19.7612 17.332C19.6702 17.3638 19.5955 17.4303 19.5535 17.517C19.0998 18.458 18.5814 19.3665 18.0022 20.2359C17.9488 20.3162 17.9295 20.4145 17.9486 20.509C17.9677 20.6036 18.0235 20.6867 18.1038 20.7401C18.1842 20.7935 18.2824 20.8127 18.377 20.7937C18.4715 20.7746 18.5546 20.7188 18.608 20.6384C19.2055 19.7413 19.7401 18.8039 20.208 17.833C20.2499 17.7462 20.2556 17.6464 20.2239 17.5554C20.1922 17.4644 20.1257 17.3894 20.0389 17.3475ZM19.5102 6.33007C19.5668 6.40819 19.6521 6.46062 19.7474 6.47583C19.8427 6.49103 19.9401 6.46777 20.0182 6.41116C20.0963 6.35455 20.1487 6.26923 20.164 6.17396C20.1792 6.07869 20.1559 5.98128 20.0993 5.90316C18.2957 3.41807 15.3527 1.80789 12.0778 1.80789C8.88583 1.80789 5.87056 3.37262 4.01165 5.99334C3.95586 6.07194 3.93358 6.16949 3.94971 6.26452C3.96583 6.35955 4.01905 6.44428 4.09765 6.50007C4.17625 6.55586 4.2738 6.57815 4.36883 6.56202C4.46386 6.54589 4.54859 6.49267 4.60438 6.41407C6.32838 3.98534 9.1222 2.53516 12.0789 2.53516C15.1015 2.53516 17.8335 4.0188 19.5102 6.33007Z" fill="#FF7262"/>
<path d="M3.65022 10.6821C3.73376 10.7302 3.83295 10.7431 3.92603 10.7181C4.0191 10.6931 4.09843 10.6321 4.14659 10.5486C4.38841 10.1297 4.60113 9.66028 4.88113 8.92864C5.1822 8.14277 5.61168 7.41235 6.15204 6.76719C6.20967 6.69271 6.23619 6.59881 6.22603 6.50519C6.21588 6.41158 6.16984 6.32554 6.09759 6.26515C6.02534 6.20476 5.9325 6.17472 5.83857 6.18134C5.74464 6.18796 5.65693 6.23072 5.59386 6.30064C5.002 7.00749 4.5316 7.80771 4.20186 8.66864C3.93641 9.36246 3.73786 9.8021 3.51641 10.1857C3.49257 10.2271 3.47712 10.2728 3.47095 10.3201C3.46477 10.3675 3.46799 10.4156 3.48042 10.4617C3.49285 10.5078 3.51424 10.551 3.54338 10.5888C3.57251 10.6266 3.60882 10.6583 3.65022 10.6821ZM6.66768 5.22792C6.6297 5.25805 6.59812 5.29548 6.57482 5.33801C6.55151 5.38053 6.53695 5.42728 6.53198 5.47551C6.52701 5.52374 6.53174 5.57248 6.54588 5.61886C6.56003 5.66524 6.58331 5.70832 6.61435 5.74557C6.64539 5.78282 6.68357 5.81348 6.72663 5.83576C6.7697 5.85804 6.81679 5.87148 6.86513 5.87529C6.91347 5.8791 6.96208 5.8732 7.0081 5.85795C7.05413 5.84269 7.09664 5.81839 7.13313 5.78646C8.20511 4.88937 9.49936 4.29828 10.8793 4.07555C10.9745 4.06028 11.0597 4.00784 11.1162 3.92977C11.1727 3.85169 11.196 3.75437 11.1808 3.65919C11.1736 3.61183 11.1571 3.56637 11.1322 3.52546C11.1073 3.48455 11.0745 3.44901 11.0357 3.42091C10.9969 3.39282 10.9529 3.37273 10.9063 3.36182C10.8596 3.35091 10.8113 3.3494 10.764 3.35737C9.26222 3.59773 7.84586 4.24464 6.66768 5.22792ZM12.2797 3.25519C12.079 3.25155 11.9124 3.40937 11.9077 3.6101C11.903 3.81083 12.0619 3.97737 12.2626 3.98246C13.6598 4.01553 15.0217 4.42781 16.2026 5.17519C16.2429 5.20071 16.2879 5.21804 16.335 5.22618C16.382 5.23432 16.4302 5.23311 16.4768 5.22263C16.5234 5.21214 16.5674 5.19258 16.6065 5.16507C16.6455 5.13756 16.6787 5.10263 16.7042 5.06228C16.7297 5.02193 16.7471 4.97694 16.7552 4.9299C16.7634 4.88285 16.7621 4.83466 16.7517 4.78808C16.7412 4.7415 16.7216 4.69744 16.6941 4.65841C16.6666 4.61939 16.6317 4.58617 16.5913 4.56064C15.299 3.74268 13.8087 3.29144 12.2797 3.25519ZM19.9408 9.75264C20.1331 9.69555 20.2426 9.49301 20.1859 9.30064C19.7529 7.83362 18.9266 6.51315 17.7964 5.48246C17.7253 5.41727 17.6313 5.38298 17.5349 5.38714C17.4385 5.3913 17.3478 5.43357 17.2826 5.50464C17.2174 5.57572 17.1831 5.66979 17.1873 5.76615C17.1914 5.86251 17.2337 5.95327 17.3048 6.01846C18.3377 6.96007 19.0929 8.16665 19.4884 9.50719C19.5462 9.70101 19.7506 9.80937 19.9404 9.75264H19.9408ZM18.5415 16.2752C17.9175 17.6454 17.2404 18.8268 16.4113 19.9941C16.3581 20.0728 16.3378 20.1692 16.3547 20.2626C16.3717 20.3561 16.4245 20.4392 16.5019 20.4942C16.5794 20.5492 16.6753 20.5718 16.7691 20.557C16.8629 20.5422 16.9473 20.4913 17.004 20.4152C17.8608 19.2097 18.5597 17.9897 19.2033 16.5763C19.2407 16.4889 19.2424 16.3904 19.2081 16.3018C19.1738 16.2132 19.1061 16.1415 19.0196 16.1022C18.9331 16.0628 18.8346 16.0589 18.7453 16.0912C18.6559 16.1236 18.5828 16.1896 18.5415 16.2752ZM14.7491 23.1821C15.1382 22.7766 15.7611 22.0337 16.1146 21.5912C16.1444 21.5539 16.1665 21.511 16.1798 21.4652C16.193 21.4193 16.1971 21.3712 16.1918 21.3238C16.1865 21.2763 16.1719 21.2304 16.1488 21.1886C16.1257 21.1468 16.0946 21.1099 16.0573 21.0801C16.02 21.0503 15.9772 21.0281 15.9313 21.0149C15.8854 21.0016 15.8374 20.9976 15.7899 21.0029C15.7424 21.0082 15.6965 21.0228 15.6547 21.0459C15.6129 21.069 15.576 21.1 15.5462 21.1374C15.2204 21.5454 14.5873 22.3021 14.2251 22.6781C14.1611 22.7481 14.127 22.8403 14.13 22.9352C14.133 23.03 14.173 23.1198 14.2414 23.1856C14.3098 23.2514 14.4011 23.2878 14.496 23.2871C14.5908 23.2865 14.6817 23.2488 14.7491 23.1821ZM20.4826 10.7894C20.4775 10.7419 20.4631 10.6959 20.4403 10.654C20.4174 10.6121 20.3865 10.5751 20.3493 10.5451C20.3122 10.5152 20.2695 10.4928 20.2237 10.4793C20.1779 10.4659 20.1299 10.4616 20.0824 10.4666C20.0349 10.4717 19.9889 10.4861 19.947 10.509C19.9051 10.5318 19.8681 10.5627 19.8382 10.5999C19.8082 10.6371 19.7858 10.6798 19.7724 10.7256C19.7589 10.7714 19.7546 10.8194 19.7597 10.8668C19.7888 11.1432 19.804 11.4243 19.8044 11.7039C19.8044 12.6577 19.6328 13.5883 19.2935 14.4697C19.2306 14.6334 19.1673 14.7945 19.104 14.9541C19.07 15.0433 19.0724 15.1423 19.1108 15.2297C19.1491 15.3171 19.2202 15.386 19.3089 15.4214C19.3975 15.4568 19.4965 15.4559 19.5845 15.419C19.6726 15.3821 19.7425 15.312 19.7793 15.2239C19.8444 15.0614 19.908 14.8974 19.9724 14.7305C20.3437 13.7646 20.5333 12.7384 20.5317 11.7036C20.5317 11.3981 20.515 11.0901 20.4826 10.7894Z" fill="#FF7262"/>
<path d="M12.0782 4.69751C9.20363 4.69751 6.58072 6.50115 5.55199 9.18587C4.96399 10.7237 4.59126 11.3481 3.55817 12.5262C3.52588 12.562 3.50102 12.6039 3.48504 12.6493C3.46906 12.6948 3.46228 12.743 3.4651 12.7911C3.46792 12.8393 3.48027 12.8863 3.50145 12.9296C3.52263 12.9729 3.5522 13.0116 3.58845 13.0434C3.6247 13.0751 3.66691 13.0994 3.71262 13.1147C3.75832 13.13 3.80662 13.1361 3.85469 13.1325C3.90276 13.129 3.94966 13.116 3.99264 13.0942C4.03563 13.0724 4.07385 13.0422 4.10508 13.0055C5.19526 11.7622 5.61236 11.0637 6.2309 9.44624C7.15308 7.04115 9.50254 5.42478 12.0782 5.42478C16.4851 5.42478 19.5229 9.85387 17.9473 13.9495C16.7709 17.0124 14.1516 21.6459 11.4062 22.9437C11.3222 22.9869 11.2583 23.061 11.228 23.1504C11.1976 23.2398 11.2032 23.3376 11.2436 23.4229C11.2839 23.5083 11.3559 23.5747 11.4442 23.608C11.5326 23.6413 11.6304 23.639 11.7171 23.6015C14.6942 22.1939 17.3651 17.4935 18.6262 14.2106C20.3825 9.64551 16.9993 4.69751 12.0782 4.69751Z" fill="#FF7262"/>
<path d="M14.3018 19.2109C14.3596 19.1337 14.3845 19.0367 14.3708 18.9413C14.3572 18.8458 14.3062 18.7597 14.229 18.7018C14.1519 18.6439 14.0549 18.6191 13.9594 18.6327C13.864 18.6464 13.7778 18.6974 13.7199 18.7745C12.6872 20.152 11.8799 21.1298 10.7501 21.6603C10.6629 21.7015 10.5955 21.7755 10.5628 21.8663C10.5301 21.957 10.5347 22.057 10.5756 22.1443C10.6621 22.3272 10.8792 22.4032 11.0599 22.3189C12.3483 21.7127 13.1578 20.7382 14.3018 19.2109ZM4.18176 15.5538C4.39012 15.0156 4.69085 14.5222 5.07521 14.0883C5.80103 13.2716 6.25012 12.6771 6.62612 12.0345C6.67319 11.9514 6.68564 11.8531 6.66079 11.7608C6.63594 11.6686 6.57578 11.5898 6.49332 11.5415C6.41087 11.4933 6.31273 11.4794 6.22013 11.5029C6.12754 11.5265 6.04792 11.5855 5.99849 11.6672C5.64867 12.2654 5.22358 12.8269 4.53121 13.6054C4.09062 14.1013 3.74245 14.6722 3.50321 15.2909C3.46835 15.3809 3.47066 15.481 3.50963 15.5693C3.54861 15.6576 3.62105 15.7267 3.71103 15.7616C3.80101 15.7965 3.90116 15.7942 3.98944 15.7552C4.07772 15.7162 4.1469 15.6438 4.18176 15.5538ZM10.813 6.29088C10.7658 6.3011 10.721 6.32063 10.6814 6.34834C10.6418 6.37605 10.6081 6.41138 10.5823 6.45226C10.5565 6.49314 10.5391 6.53876 10.5312 6.58644C10.5232 6.63413 10.5248 6.68292 10.536 6.72996C10.5471 6.77701 10.5675 6.82137 10.5959 6.86044C10.6244 6.89951 10.6604 6.93252 10.7018 6.95752C10.7431 6.98253 10.7891 6.99903 10.8369 7.00607C10.8847 7.01311 10.9335 7.01054 10.9803 6.99852C11.641 6.84293 12.3271 6.82885 12.9936 6.9572C13.6601 7.08555 14.2919 7.35343 14.8476 7.74325C14.9267 7.79841 15.0245 7.81988 15.1195 7.80294C15.2144 7.78599 15.2988 7.73201 15.3539 7.65288C15.4091 7.57375 15.4306 7.47595 15.4136 7.38099C15.3967 7.28603 15.3427 7.20168 15.2636 7.14652C14.6239 6.69834 13.8966 6.39043 13.1296 6.24298C12.3625 6.09552 11.5733 6.11185 10.813 6.29088ZM9.36867 6.85561C8.23631 7.49234 7.35994 8.50361 6.90212 9.70179C6.81164 9.93846 6.71732 10.1736 6.61921 10.4072C6.59903 10.4515 6.58793 10.4993 6.58657 10.548C6.5852 10.5966 6.5936 10.645 6.61127 10.6903C6.62894 10.7356 6.65552 10.7769 6.68944 10.8117C6.72336 10.8466 6.76392 10.8743 6.80873 10.8932C6.85354 10.9121 6.90168 10.9218 6.95032 10.9218C6.99895 10.9218 7.04708 10.912 7.09187 10.893C7.13665 10.874 7.17717 10.8463 7.21104 10.8114C7.24491 10.7765 7.27143 10.7351 7.28903 10.6898C7.38394 10.4643 7.48031 10.2243 7.5814 9.96216C7.97885 8.92143 8.74031 8.04361 9.7254 7.48979C9.80949 7.44254 9.87137 7.36381 9.89743 7.27093C9.92348 7.17804 9.91156 7.07862 9.86431 6.99452C9.81705 6.91042 9.73832 6.84854 9.64544 6.82249C9.55256 6.79644 9.45277 6.80835 9.36867 6.85561ZM14.6454 18.1058C14.7265 18.158 14.825 18.1758 14.9193 18.1553C15.0135 18.1349 15.0958 18.0778 15.1479 17.9967C15.9007 16.8276 16.5334 15.572 17.1385 14.0451C17.1723 13.9558 17.1696 13.8568 17.1311 13.7694C17.0925 13.6821 17.0212 13.6134 16.9324 13.5782C16.8437 13.543 16.7447 13.5442 16.6567 13.5814C16.5688 13.6186 16.499 13.6889 16.4625 13.7771C15.8752 15.2585 15.2629 16.4745 14.5363 17.6032C14.4841 17.6844 14.4663 17.7829 14.4868 17.8771C14.5072 17.9714 14.5643 18.0536 14.6454 18.1058ZM17.1596 12.8803C17.2548 12.8955 17.3522 12.8723 17.4303 12.8157C17.5084 12.7591 17.5608 12.6738 17.5759 12.5785C17.6218 12.2912 17.645 11.9967 17.645 11.704C17.645 10.4665 17.2378 9.22397 16.4007 8.19997C16.3396 8.12528 16.2514 8.0779 16.1554 8.06825C16.0594 8.0586 15.9635 8.08747 15.8889 8.14852C15.8142 8.20957 15.7668 8.29779 15.7571 8.39377C15.7475 8.48976 15.7763 8.58564 15.8374 8.66034C16.5647 9.54943 16.9174 10.6276 16.9174 11.704C16.9174 11.9589 16.897 12.2145 16.8578 12.464C16.8427 12.5592 16.866 12.6564 16.9226 12.7344C16.9792 12.8124 17.0644 12.8648 17.1596 12.88V12.8803ZM8.6974 22.1189C8.60095 22.1189 8.50846 22.1572 8.44027 22.2254C8.37207 22.2936 8.33376 22.3861 8.33376 22.4825C8.33376 22.579 8.37207 22.6715 8.44027 22.7396C8.50846 22.8078 8.60095 22.8462 8.6974 22.8462C8.99049 22.8462 9.28649 22.8222 9.5774 22.7756C9.62455 22.7681 9.66976 22.7513 9.71044 22.7263C9.75112 22.7013 9.78647 22.6685 9.81448 22.6298C9.84249 22.5911 9.86261 22.5473 9.87369 22.5009C9.88476 22.4544 9.88658 22.4062 9.87903 22.3591C9.87149 22.3119 9.85473 22.2667 9.82971 22.226C9.8047 22.1853 9.77191 22.15 9.73323 22.122C9.69455 22.094 9.65073 22.0739 9.60428 22.0628C9.55782 22.0517 9.50964 22.0499 9.46249 22.0574C9.20976 22.0982 8.9523 22.1189 8.6974 22.1189Z" fill="#FF7262"/>
<path d="M8.6964 21.4022C9.87276 21.4022 10.9949 20.8967 11.7749 20.016C13.7662 17.7687 14.8528 15.9789 15.928 13.176C16.7535 11.0251 15.6517 8.56654 13.3942 7.80399C11.284 7.0909 9.02258 8.20327 8.24985 10.22C7.52476 12.1138 6.95749 13.0476 5.61167 14.5658C4.14585 16.2178 4.25095 18.7171 5.85095 20.256C6.61439 20.9934 7.63499 21.4045 8.6964 21.4022ZM6.15567 15.0484C7.57022 13.4527 8.16658 12.4705 8.92876 10.48C9.56149 8.83018 11.4153 7.90363 13.1611 8.49308C15.0113 9.11854 15.9328 11.1349 15.2491 12.9153C14.2088 15.6273 13.1571 17.3589 11.2302 19.5338C10.9126 19.8924 10.5225 20.1795 10.0857 20.3762C9.64896 20.5729 9.17543 20.6747 8.6964 20.6749C7.82311 20.6767 6.98344 20.3383 6.35531 19.7316C5.03749 18.4647 4.94985 16.4076 6.15567 15.0484Z" fill="#FF7262"/>
<path d="M8.69639 19.9575H8.71458C9.08904 19.9548 9.45875 19.8733 9.79968 19.7184C10.1406 19.5635 10.4451 19.3385 10.6935 19.0583C11.3048 18.3684 11.8113 17.7412 12.2426 17.1404C12.2988 17.0621 12.3216 16.9646 12.3059 16.8694C12.2903 16.7743 12.2375 16.6892 12.1591 16.633C12.0808 16.5768 11.9833 16.554 11.8881 16.5696C11.7929 16.5853 11.7079 16.6381 11.6517 16.7164C10.5898 18.1964 9.96112 19.1252 8.69639 19.2303C8.19679 19.2313 7.71641 19.0378 7.35712 18.6906C6.78985 18.1452 6.61821 17.3612 6.84876 16.675C6.87479 16.5848 6.865 16.4881 6.82144 16.405C6.77788 16.3219 6.70391 16.2589 6.61497 16.229C6.52603 16.1991 6.42898 16.2047 6.34408 16.2447C6.25918 16.2846 6.19298 16.3558 6.1593 16.4434C5.84294 17.3859 6.07348 18.4648 6.85276 19.2146C7.34737 19.6925 8.00864 19.959 8.69639 19.9575ZM7.58985 15.6023C8.69967 14.3023 9.31603 13.3139 9.94548 11.8252C9.9831 11.7364 9.98388 11.6362 9.94767 11.5468C9.91146 11.4574 9.84122 11.3861 9.75239 11.3484C9.66357 11.3108 9.56344 11.31 9.47404 11.3463C9.38464 11.3825 9.31328 11.4527 9.27567 11.5415C8.67858 12.9543 8.09203 13.8932 7.03639 15.1299C6.97375 15.2033 6.94284 15.2986 6.95044 15.3948C6.95804 15.4909 7.00355 15.5802 7.07694 15.6428C7.15033 15.7055 7.2456 15.7364 7.34179 15.7288C7.43798 15.7212 7.52721 15.6757 7.58985 15.6023ZM10.5062 10.5732C10.7464 10.2345 11.0894 9.98239 11.4843 9.85425C11.8792 9.72611 12.3049 9.72879 12.6982 9.8619C13.0828 9.98994 13.4181 10.2344 13.6575 10.5615C13.6857 10.6001 13.7212 10.6327 13.7619 10.6576C13.8027 10.6824 13.848 10.699 13.8952 10.7063C13.9424 10.7137 13.9906 10.7117 14.037 10.7004C14.0834 10.6891 14.1271 10.6688 14.1657 10.6406C14.2042 10.6125 14.2369 10.577 14.2617 10.5362C14.2865 10.4954 14.3031 10.4501 14.3105 10.4029C14.3178 10.3557 14.3158 10.3076 14.3045 10.2611C14.2932 10.2147 14.2729 10.171 14.2448 10.1324C13.917 9.68412 13.4578 9.34887 12.9309 9.17317C12.3897 8.99002 11.8039 8.9862 11.2604 9.16227C10.7168 9.33835 10.2445 9.68494 9.91348 10.1506C9.86197 10.2294 9.84292 10.325 9.8603 10.4174C9.87769 10.5099 9.93017 10.5921 10.0068 10.6467C10.0834 10.7014 10.1781 10.7243 10.2712 10.7106C10.3643 10.697 10.4485 10.6475 10.5062 10.5732ZM14.0284 11.7066C14.0282 11.9428 13.9847 12.177 13.9 12.3975C13.4131 13.6666 12.9597 14.6317 12.4295 15.527C12.3803 15.61 12.3661 15.7091 12.39 15.8026C12.4139 15.896 12.474 15.9762 12.5569 16.0254C12.6399 16.0745 12.7391 16.0887 12.8325 16.0648C12.926 16.0409 13.0061 15.9809 13.0553 15.8979C13.6073 14.9659 14.0771 13.9666 14.5789 12.6579C14.6953 12.3557 14.7549 12.0361 14.7557 11.7088C14.7558 11.6611 14.7465 11.6137 14.7284 11.5696C14.7103 11.5254 14.6836 11.4852 14.6499 11.4514C14.6163 11.4175 14.5763 11.3906 14.5322 11.3722C14.4881 11.3538 14.4409 11.3442 14.3931 11.3441H14.392C14.2958 11.3441 14.2034 11.3822 14.1353 11.4502C14.0671 11.5182 14.0287 11.6104 14.0284 11.7066Z" fill="#FF7262"/>
<path d="M12.468 10.5414C12.1718 10.4418 11.8485 10.4601 11.5655 10.5928C11.2824 10.7254 11.0614 10.962 10.9484 11.2534C10.0957 13.4789 9.35347 14.7014 7.77238 16.4847C7.34002 16.972 7.37093 17.7087 7.8542 18.1734C8.35966 18.6592 9.15784 18.6127 9.61202 18.1003C11.3902 16.0923 12.2698 14.6443 13.2302 12.1403C13.29 11.9857 13.3177 11.8204 13.3114 11.6547C13.3051 11.489 13.2651 11.3263 13.1937 11.1766C13.1224 11.0269 13.0212 10.8934 12.8964 10.7841C12.7716 10.6749 12.6258 10.5923 12.468 10.5414ZM12.5517 11.8796C11.6262 14.2905 10.7797 15.6851 9.06729 17.6178C8.88911 17.8196 8.56547 17.8487 8.3462 17.6371C8.25555 17.551 8.2018 17.4331 8.19624 17.3082C8.19068 17.1833 8.23374 17.0611 8.31638 16.9672C9.96511 15.108 10.7382 13.8338 11.6273 11.5134C11.7207 11.2694 11.9982 11.1523 12.2164 11.2236L12.2517 11.236C12.5171 11.3258 12.652 11.6185 12.5517 11.8796Z" fill="#FF7262"/>
</svg>
