<svg xmlns="http://www.w3.org/2000/svg" width="36" height="36" viewBox="0 0 56 56" fill="none">
  <path d="M32.2237 40.0392C32.2725 39.7318 32.285 17.5022 32.2386 17.0171C28.4614 17.9167 24.6898 18.8156 20.9027 19.7177V35.3879C18.953 36.15 17.0102 36.9089 15.0683 37.667C15.0558 37.66 15.0451 37.6562 15.0349 37.649C15.0264 37.6427 15.0155 37.6333 15.0147 37.6247C15.0085 37.566 15.0008 37.5074 15.0008 37.4479C15 31.1162 15 24.7836 15 18.4675C15.0869 18.3604 15.1993 18.347 15.2969 18.3111C20.8477 16.2323 26.4002 14.1557 31.9516 12.0771C32.1439 12.005 32.3184 11.9698 32.5315 12.0325C35.5775 12.9166 38.6265 13.7904 41.6748 14.6675C41.719 14.6809 41.7633 14.6965 41.826 14.7167V41.4044C40.9508 41.6477 40.0833 41.8911 39.215 42.1304C37.0047 42.7399 34.793 43.3448 32.5843 43.9588C32.368 44.0191 32.1788 44.0145 31.9663 43.9362C26.5063 41.9185 21.0438 39.907 15.5831 37.8947C15.4753 37.8549 15.3697 37.8102 15.279 37.714C20.9275 38.4894 26.576 39.2639 32.2237 40.0392Z" fill="#DC3E15"/>
</svg>