<svg width="20" height="21" viewBox="0 0 20 21" fill="none" xmlns="http://www.w3.org/2000/svg">
<mask id="mask0_79_2225" style="mask-type:alpha" maskUnits="userSpaceOnUse" x="0" y="0" width="20" height="21">
<rect y="0.5" width="20" height="20" fill="#D9D9D9"/>
</mask>
<g mask="url(#mask0_79_2225)">
<path d="M4.16667 18C3.70833 18 3.31597 17.8368 2.98958 17.5104C2.66319 17.184 2.5 16.7917 2.5 16.3333V4.66667C2.5 4.20833 2.66319 3.81597 2.98958 3.48958C3.31597 3.16319 3.70833 3 4.16667 3H10V4.66667H4.16667V16.3333H15.8333V10.5H17.5V16.3333C17.5 16.7917 17.3368 17.184 17.0104 17.5104C16.684 17.8368 16.2917 18 15.8333 18H4.16667ZM8.08333 13.5833L6.91667 12.4167L14.6667 4.66667H11.6667V3H17.5V8.83333H15.8333V5.83333L8.08333 13.5833Z" fill="#109CF1"/>
</g>
</svg>
