<svg width="24" height="24" viewBox="0 0 24 24" fill="none" xmlns="http://www.w3.org/2000/svg">
<g clip-path="url(#clip0_16_467)">
<path d="M9.86654 4C8.98289 4 8.26665 4.71643 8.26665 5.59995C8.26644 5.80984 8.30765 6.01773 8.38794 6.21173C8.46823 6.40573 8.58602 6.58205 8.73458 6.73062C8.88314 6.87918 9.05957 6.99709 9.2538 7.07761C9.44802 7.15813 9.65623 7.19968 9.86654 7.19989H11.4667V5.59995C11.4671 5.17601 11.2987 4.7693 10.9986 4.46926C10.6985 4.16922 10.2913 4.00043 9.86654 4ZM9.86654 8.26652H5.59989C4.71624 8.26652 4 8.98296 4 9.86674C4 10.7502 4.71624 11.4667 5.59989 11.4667H9.86681C10.7502 11.4667 11.4667 10.7502 11.4667 9.86674C11.4667 8.98296 10.7502 8.26652 9.86654 8.26652Z" fill="#36C5F0"/>
<path d="M19.9999 9.86674C19.9999 8.98296 19.2834 8.26652 18.3997 8.26652C17.5161 8.26652 16.7999 8.98296 16.7999 9.86674V11.4667H18.3997C18.8245 11.4663 19.2317 11.2975 19.5318 10.9974C19.8319 10.6974 20.0003 10.2907 19.9999 9.86674ZM15.7333 9.86674V5.59995C15.7336 5.17601 15.5652 4.7693 15.2652 4.46926C14.9651 4.16922 14.5579 4.00043 14.1331 4C13.2494 4 12.5332 4.71643 12.5332 5.59995V9.86647C12.5332 10.7505 13.2494 11.467 14.1331 11.467C14.5579 11.4665 14.9651 11.2977 15.2652 10.9977C15.5652 10.6976 15.7336 10.2907 15.7333 9.86674Z" fill="#2EB67D"/>
<path d="M14.1331 19.9999C14.5579 19.9995 14.9651 19.8307 15.2652 19.5306C15.5652 19.2306 15.7336 18.8239 15.7333 18.3999C15.7336 17.976 15.5652 17.5693 15.2652 17.2693C14.9651 16.9692 14.5579 16.8004 14.1331 16.8H12.5332V18.3999C12.5332 19.2835 13.2494 19.9999 14.1331 19.9999ZM14.1331 15.7334H18.4C19.2834 15.7334 19.9999 15.0169 19.9999 14.1331C20.0003 13.7092 19.8319 13.3025 19.5318 13.0025C19.2317 12.7024 18.8245 12.5336 18.3997 12.5332H14.1331C13.2494 12.5332 12.5332 13.2496 12.5332 14.1331C12.533 14.343 12.5742 14.5509 12.6545 14.7449C12.7348 14.9389 12.8526 15.1152 13.0011 15.2638C13.1497 15.4124 13.3261 15.5303 13.5204 15.6108C13.7146 15.6913 13.9228 15.7332 14.1331 15.7334Z" fill="#ECB22E"/>
<path d="M4 14.1331C3.99979 14.343 4.041 14.5509 4.12129 14.7449C4.20158 14.9389 4.31937 15.1152 4.46793 15.2638C4.6165 15.4124 4.79293 15.5303 4.98715 15.6108C5.18137 15.6913 5.38958 15.7329 5.59989 15.7331C6.02466 15.7327 6.43187 15.5639 6.73195 15.2638C7.03203 14.9638 7.20041 14.5571 7.20005 14.1331V12.5332H5.59989C4.71624 12.5332 4 13.2496 4 14.1331ZM8.26665 14.1331V18.3997C8.26665 19.2835 8.98289 19.9999 9.86654 19.9999C10.2913 19.9995 10.6985 19.8307 10.9986 19.5306C11.2987 19.2306 11.4671 18.8239 11.4667 18.3999V14.1331C11.4669 13.9232 11.4257 13.7153 11.3454 13.5213C11.2651 13.3273 11.1473 13.151 10.9987 13.0024C10.8501 12.8538 10.6736 12.7359 10.4794 12.6554C10.2851 12.5749 10.0769 12.5334 9.86654 12.5332C8.98289 12.5332 8.26665 13.2496 8.26665 14.1331Z" fill="#E01E5A"/>
</g>
<defs>
<clipPath id="clip0_16_467">
<rect width="16" height="16" fill="white" transform="translate(4 4)"/>
</clipPath>
</defs>
</svg>