<svg width="24" height="24" viewBox="0 0 24 24" fill="none" xmlns="http://www.w3.org/2000/svg">
<path d="M0.5 12C0.5 5.64873 5.64873 0.5 12 0.5C18.3513 0.5 23.5 5.64873 23.5 12C23.5 18.3513 18.3513 23.5 12 23.5C5.64873 23.5 0.5 18.3513 0.5 12Z" fill="#109CF1" stroke="#109CF1"/>
<path d="M15.3984 15.8125V17H7.95312V15.9609L11.6797 11.8125C12.138 11.3021 12.4922 10.8698 12.7422 10.5156C12.9974 10.1562 13.1745 9.83594 13.2734 9.55469C13.3776 9.26823 13.4297 8.97656 13.4297 8.67969C13.4297 8.30469 13.3516 7.96615 13.1953 7.66406C13.0443 7.35677 12.8203 7.11198 12.5234 6.92969C12.2266 6.7474 11.8672 6.65625 11.4453 6.65625C10.9401 6.65625 10.5182 6.75521 10.1797 6.95312C9.84635 7.14583 9.59635 7.41667 9.42969 7.76562C9.26302 8.11458 9.17969 8.51562 9.17969 8.96875H7.73438C7.73438 8.32812 7.875 7.74219 8.15625 7.21094C8.4375 6.67969 8.85417 6.25781 9.40625 5.94531C9.95833 5.6276 10.638 5.46875 11.4453 5.46875C12.1641 5.46875 12.7786 5.59635 13.2891 5.85156C13.7995 6.10156 14.1901 6.45573 14.4609 6.91406C14.737 7.36719 14.875 7.89844 14.875 8.50781C14.875 8.84115 14.8177 9.17969 14.7031 9.52344C14.5938 9.86198 14.4401 10.2005 14.2422 10.5391C14.0495 10.8776 13.8229 11.2109 13.5625 11.5391C13.3073 11.8672 13.0339 12.1901 12.7422 12.5078L9.69531 15.8125H15.3984Z" fill="white"/>
</svg>